{
  "accessors": [
    {
      "bufferView": 1,
      "componentType": 5126,
      "count": 321,
      "max": [
        1.6574070453643799,
        1.7253409624099731,
        4.892549991607666
      ],
      "min": [
        -1.6574070453643799,
        -1.3147170543670654,
        0.015933999791741371
      ],
      "type": "VEC3"
    },
    {
      "bufferView": 1,
      "byteOffset": 3852,
      "componentType": 5126,
      "count": 321,
      "max": [
        0.87858760356903076,
        0.91065669059753418,
        0.72820305824279785
      ],
      "min": [
        -0.95990735292434692,
        -0.99939101934432983,
        -0.6536400318145752
      ],
      "type": "VEC3"
    },
    {
      "bufferView": 2,
      "componentType": 5126,
      "count": 321,
      "max": [
        0.62239712476730347,
        0.87301337718963623,
        0.503684401512146,
        1
      ],
      "min": [
        -0.997050940990448,
        -0.90895730257034302,
        -0.96683567762374878,
        1
      ],
      "type": "VEC4"
    },
    {
      "bufferView": 0,
      "componentType": 5125,
      "count": 378,
      "max": [
        320
      ],
      "min": [
        0
      ],
      "type": "SCALAR"
    }
  ],
  "asset": {
    "extras": {
      "author": "seeriouslee (https://sketchfab.com/seeriouslee)",
      "license": "CC-BY-4.0 (http://creativecommons.org/licenses/by/4.0/)",
      "source": "https://sketchfab.com/models/618236229c4c4e4a97ff0fe87f0671a2",
      "title": "Gem"
    },
    "generator": "Sketchfab-3.29.4",
    "version": "2.0"
  },
  "bufferViews": [
    {
      "buffer": 0,
      "byteLength": 1512,
      "byteOffset": 0,
      "name": "floatBufferViews",
      "target": 34963
    },
    {
      "buffer": 0,
      "byteLength": 7704,
      "byteOffset": 1512,
      "byteStride": 12,
      "name": "floatBufferViews",
      "target": 34962
    },
    {
      "buffer": 0,
      "byteLength": 5136,
      "byteOffset": 9216,
      "byteStride": 16,
      "name": "floatBufferViews",
      "target": 34962
    }
  ],
  "buffers": [
    {
      "byteLength": 14352,
      "uri": "scene.bin"
    }
  ],
  "materials": [
    {
      "alphaMode": "BLEND",
      "doubleSided": true,
      "emissiveFactor": [
        0,
        0.39305370473528078,
        1
      ],
      "name": "phong3SG",
      "pbrMetallicRoughness": {
        "baseColorFactor": [
          0,
          0.042825046999999998,
          0.50545439839999995,
          0.52000762199999995
        ],
        "metallicFactor": 0,
        "roughnessFactor": 0
      }
    }
  ],
  "meshes": [
    {
      "primitives": [
        {
          "attributes": {
            "NORMAL": 1,
            "POSITION": 0,
            "TANGENT": 2
          },
          "indices": 3,
          "material": 0,
          "mode": 4
        }
      ]
    }
  ],
  "nodes": [
    {
      "children": [
        1
      ],
      "name": "RootNode (gltf orientation matrix)",
      "rotation": [
        -0.70710678118654746,
        -0,
        -0,
        0.70710678118654757
      ]
    },
    {
      "children": [
        2
      ],
      "name": "RootNode (model correction matrix)"
    },
    {
      "children": [
        3
      ],
      "name": "2b253a2034924b889404ec3fdd83c297.obj.cleaner.materialmerger.gles"
    },
    {
      "mesh": 0,
      "name": ""
    }
  ],
  "scene": 0,
  "scenes": [
    {
      "name": "OSG_Scene",
      "nodes": [
        0
      ]
    }
  ]
}

